<?xml version="1.0" encoding="UTF-8" standalone="no"?><!DOCTYPE svg PUBLIC "-//W3C//DTD SVG 1.1//EN" "http://www.w3.org/Graphics/SVG/1.1/DTD/svg11.dtd"><svg width="100%" height="100%" viewBox="0 0 274 63" version="1.1" xmlns="http://www.w3.org/2000/svg" xmlns:xlink="http://www.w3.org/1999/xlink" xml:space="preserve" xmlns:serif="http://www.serif.com/" style="fill-rule:evenodd;clip-rule:evenodd;stroke-linejoin:round;stroke-miterlimit:2;"><g><path d="M252.571,30.04c0,-2.004 -0.547,-3.027 -1.819,-3.027l-12.569,-0c-1.303,-0 -1.955,0.932 -1.955,2.8c-0,0.225 -0.026,2.862 -0.026,3.293c-0,2.214 0.518,3.32 1.555,3.32l13.271,-0c1.037,-0 1.556,-0.984 1.556,-2.957c-0,-0.224 -0.013,-3.117 -0.013,-3.429m5.397,5.714c0,1.001 -0.718,2.031 -2.155,3.086c-1.44,1.037 -2.828,1.556 -4.164,1.556l-14.4,-0c-1.355,-0 -2.751,-0.529 -4.19,-1.584c-1.421,-1.071 -2.131,-2.101 -2.131,-3.085l0,-8.015c0,-1.037 0.719,-2.075 2.158,-3.112c1.454,-1.035 2.934,-1.554 4.439,-1.554l13.846,0c1.405,0 2.844,0.492 4.315,1.475c1.523,1.038 2.282,2.093 2.282,3.166l0,8.067Z" style="fill:#686868;"/><path d="M226.627,27.137l-19.958,0c-0.364,0 -0.705,0.156 -1.02,0.463c-0.315,0.292 -0.472,0.565 -0.472,0.823c0,0.188 0.157,0.454 0.472,0.797c0.331,0.411 0.672,0.616 1.02,0.616l13.569,-0c1.724,-0 3.24,0.643 4.548,1.926c1.144,1.13 1.715,2.243 1.715,3.339c-0,1.217 -0.605,2.382 -1.814,3.494c-1.292,1.199 -2.775,1.801 -4.449,1.801l-20.355,-0l-0,-3.932l19.66,0c0.463,0 0.869,-0.207 1.217,-0.618c0.282,-0.307 0.423,-0.573 0.423,-0.796c-0,-0.239 -0.15,-0.513 -0.448,-0.821c-0.282,-0.31 -0.587,-0.463 -0.919,-0.463l-13.695,-0c-1.739,-0 -3.255,-0.626 -4.547,-1.874c-1.144,-1.131 -1.716,-2.271 -1.716,-3.418c-0,-1.234 0.605,-2.399 1.814,-3.494c1.309,-1.182 2.883,-1.773 4.722,-1.773l20.233,-0l-0,3.93Z" style="fill:#686868;fill-rule:nonzero;"/><path d="M98.801,35.068c-0,-0.255 -0.149,-0.528 -0.448,-0.819c-0.357,-0.342 -0.787,-0.512 -1.301,-0.512l-13.493,-0l0,2.689l13.493,0c0.424,0 0.823,-0.145 1.194,-0.436c0.37,-0.29 0.555,-0.598 0.555,-0.922m-0.29,-6.608c0,-0.274 -0.124,-0.547 -0.37,-0.82c-0.339,-0.341 -0.797,-0.512 -1.379,-0.512l-13.203,-0l0,2.689l13.203,0c0.495,0 0.919,-0.162 1.272,-0.486c0.319,-0.273 0.477,-0.563 0.477,-0.871m5.99,6.608c0,1.316 -0.682,2.512 -2.04,3.586c-1.415,1.128 -3.066,1.69 -4.959,1.69l-19.614,-0l0,-17.135l19.164,-0c2.014,-0 3.711,0.588 5.09,1.768c1.271,1.092 1.909,2.271 1.909,3.535c0,1.024 -0.503,2.091 -1.512,3.202c1.308,1.057 1.962,2.176 1.962,3.354" style="fill:#686868;"/><path d="M42.8,35.853c0.016,1 -0.689,2.026 -2.113,3.077c-1.425,1.034 -2.8,1.552 -4.126,1.552l-14.266,-0c-1.441,-0 -2.849,-0.552 -4.226,-1.655c-1.357,-1.121 -2.037,-2.19 -2.037,-3.207l-0,-12.438l5.318,-0l0,12.154c0,0.155 0.183,0.396 0.548,0.724c0.365,0.311 0.679,0.465 0.945,0.465l3.802,0l-0,-13.343l5.368,-0l-0,13.343l3.977,0c0.297,0 0.621,-0.137 0.969,-0.413c0.364,-0.276 0.546,-0.51 0.546,-0.699l0,-12.231l5.295,-0l-0,12.671Z" style="fill:#686868;fill-rule:nonzero;"/><path d="M73.874,40.508l-18.907,-0c-1.672,-0 -3.395,-0.527 -5.17,-1.578c-1.753,-1.068 -2.629,-2.095 -2.629,-3.077l-0,-7.99c-0,-1.034 0.887,-2.068 2.662,-3.103c1.794,-1.033 3.62,-1.551 5.476,-1.551l18.384,0l-0,3.957l-19.795,-0c-0.352,-0 -0.753,0.137 -1.207,0.412c-0.434,0.26 -0.65,0.484 -0.65,0.672l0,1.579l20.784,0l-0,4.008l-20.631,-0c-0.102,0.086 -0.153,0.344 -0.153,0.775c0,1.293 0.619,1.939 1.857,1.939l19.979,0l0,3.957Z" style="fill:#686868;fill-rule:nonzero;"/><path d="M190.721,31.864c0,-0.017 0.02,-0.221 0.054,-0.613c0.036,-0.393 0.053,-0.743 0.053,-1.05c0,-2.016 -0.662,-3.022 -1.987,-3.022l-13.361,-0l-0,9.295l13.493,0c1.203,0 1.802,-0.946 1.802,-2.841c-0,-0.222 -0.008,-0.529 -0.028,-0.923c-0.016,-0.393 -0.026,-0.672 -0.026,-0.846m5.701,3.946c0,1.042 -0.805,2.065 -2.413,3.073c-1.591,1.008 -3.12,1.513 -4.586,1.513l-19.614,-0l-0,-17.138l19.614,0c1.503,0 3.033,0.487 4.586,1.462c1.608,1.025 2.413,2.065 2.413,3.123l0,7.967Z" style="fill:#cac8c8;"/><path d="M134.721,35.902c0,1.002 -0.764,2.027 -2.294,3.079c-1.51,1.035 -2.978,1.551 -4.399,1.551l-13.357,0c-1.546,0 -3.056,-0.552 -4.531,-1.656c-1.458,-1.121 -2.188,-2.189 -2.188,-3.206l0,-12.439l5.706,0l0,12.155c0,0.156 0.196,0.397 0.588,0.723c0.39,0.312 0.728,0.466 1.012,0.466l12.317,-0c0.303,-0 0.631,-0.164 0.987,-0.491c0.303,-0.294 0.454,-0.501 0.454,-0.621l-0,-12.232l5.705,0l0,12.671Z" style="fill:#cac8c8;fill-rule:nonzero;"/><path d="M165.744,40.505l-5.694,0l0,-12.135c0,-0.173 -0.204,-0.416 -0.615,-0.728c-0.389,-0.327 -0.718,-0.493 -0.983,-0.493l-12.27,0c-0.284,0 -0.614,0.166 -0.987,0.493c-0.301,0.277 -0.46,0.476 -0.477,0.596l-0,12.267l-5.696,0l-0,-12.653c-0,-1.038 0.763,-2.077 2.289,-3.114c1.545,-1.038 3.113,-1.556 4.711,-1.556l12.723,-0c1.507,-0 3.043,0.492 4.604,1.479c1.598,1.037 2.395,2.092 2.395,3.163l-0,12.681Z" style="fill:#cac8c8;fill-rule:nonzero;"/><path d="M237.587,46.707c-0,0.285 -0.148,0.56 -0.448,0.823c-0.314,0.283 -0.672,0.424 -1.077,0.424l-3.478,-0c-0.325,-0 -0.662,-0.125 -1.01,-0.371c-0.344,-0.248 -0.513,-0.488 -0.513,-0.72l-0,-1.871c-0,-0.243 0.172,-0.485 0.518,-0.725c0.353,-0.244 0.708,-0.366 1.074,-0.366l4.863,0l-0,0.928l-4.761,-0c-0.278,-0 -0.419,0.248 -0.419,0.746c0,0.074 0.003,0.155 0.008,0.24c0.007,0.081 0.012,0.117 0.012,0.11c0,0.012 -0.005,0.066 -0.012,0.163c-0.005,0.093 -0.008,0.176 -0.008,0.249c0,0.46 0.13,0.689 0.383,0.689l3.205,0c0.112,0 0.204,-0.046 0.278,-0.138c0.056,-0.074 0.084,-0.133 0.084,-0.181c0,-0.061 -0.036,-0.13 -0.109,-0.2c-0.073,-0.078 -0.146,-0.117 -0.22,-0.117l-2.293,0l0,-0.925l2.398,-0c0.424,-0 0.792,0.146 1.108,0.44c0.279,0.263 0.417,0.531 0.417,0.802" style="fill:#cac8c8;"/><path d="M244.63,47.946l-1.288,0l-0,-2.856c-0,-0.041 -0.046,-0.093 -0.14,-0.159c-0.089,-0.068 -0.164,-0.102 -0.23,-0.102l-0.958,0l0,3.117l-1.303,0l-0,-3.117l-0.941,0c-0.067,0 -0.143,0.039 -0.232,0.115c-0.088,0.072 -0.134,0.126 -0.134,0.163l0,2.839l-1.295,0l-0,-2.954c-0,-0.243 0.172,-0.485 0.521,-0.725c0.35,-0.243 0.708,-0.366 1.071,-0.366l3.344,0c0.338,0 0.686,0.118 1.041,0.346c0.366,0.244 0.549,0.49 0.544,0.738l0,2.961Z" style="fill:#cac8c8;fill-rule:nonzero;"/><path d="M250.117,46.707c0,-0.061 -0.034,-0.127 -0.102,-0.195c-0.08,-0.081 -0.181,-0.122 -0.297,-0.122l-3.081,0l-0,0.636l3.081,0c0.097,0 0.187,-0.034 0.272,-0.102c0.086,-0.069 0.127,-0.141 0.127,-0.217m-0.066,-1.564c-0,-0.063 -0.026,-0.128 -0.085,-0.192c-0.076,-0.083 -0.181,-0.122 -0.314,-0.122l-3.015,-0l-0,0.636l3.015,-0c0.112,-0 0.209,-0.039 0.289,-0.115c0.074,-0.066 0.11,-0.133 0.11,-0.207m1.369,1.564c0,0.309 -0.156,0.592 -0.465,0.848c-0.324,0.265 -0.702,0.399 -1.132,0.399l-4.484,-0l-0,-4.053l4.379,0c0.46,0 0.849,0.139 1.163,0.419c0.291,0.258 0.437,0.536 0.437,0.836c-0,0.243 -0.115,0.493 -0.346,0.757c0.3,0.25 0.448,0.513 0.448,0.794" style="fill:#cac8c8;"/><path d="M257.725,47.946l-1.29,0l-0,-1.556l-3.071,0l-0,1.556l-1.301,0l-0,-4.045l1.288,0l0,1.557l3.066,-0l0,-1.557l1.308,0l0,4.045Z" style="fill:#cac8c8;fill-rule:nonzero;"/></g></svg>