<?xml version="1.0" standalone="no"?>
<!DOCTYPE svg PUBLIC "-//W3C//DTD SVG 20010904//EN"
 "http://www.w3.org/TR/2001/REC-SVG-20010904/DTD/svg10.dtd">
<svg version="1.0" xmlns="http://www.w3.org/2000/svg"
 width="600.000000pt" height="600.000000pt" viewBox="0 0 600.000000 600.000000"
 preserveAspectRatio="xMidYMid meet">
<metadata>
Created by potrace 1.14, written by Peter Selinger 2001-2017
</metadata>
<g transform="translate(0.000000,600.000000) scale(0.100000,-0.100000)"
fill="#000000" stroke="none">
<path d="M2904 5194 c-57 -20 -108 -67 -207 -187 -148 -180 -293 -392 -396
-579 -23 -43 -47 -78 -53 -78 -7 0 -66 35 -132 79 -151 98 -344 204 -414 226
-128 42 -268 -19 -331 -144 -44 -85 -125 -391 -162 -612 -12 -74 -23 -135 -24
-136 -1 -1 -53 6 -116 17 -186 31 -315 43 -474 44 -171 1 -211 -10 -277 -78
-63 -65 -73 -95 -76 -246 -9 -328 64 -749 193 -1110 46 -132 165 -378 235
-490 337 -537 874 -883 1609 -1036 267 -55 405 -68 721 -68 311 0 445 12 703
64 541 109 999 337 1325 659 313 309 546 768 656 1291 75 353 100 767 53 862
-26 52 -83 107 -136 132 -80 37 -370 26 -670 -24 -63 -11 -115 -18 -116 -17
-1 1 -12 63 -24 137 -35 212 -118 526 -162 611 -63 126 -202 186 -330 144 -68
-22 -269 -131 -423 -229 -65 -42 -122 -76 -126 -76 -5 0 -28 35 -51 78 -140
252 -404 616 -521 716 -73 63 -182 82 -274 50z m168 -341 c382 -462 636 -982
723 -1478 103 -585 -41 -1196 -429 -1822 -100 -162 -343 -483 -366 -483 -12 0
-150 170 -241 297 -290 407 -483 845 -554 1258 -105 613 54 1249 472 1890 102
155 304 415 323 415 5 0 37 -35 72 -77z m-1317 -529 c108 -60 375 -228 375
-237 0 -2 -22 -62 -49 -134 -43 -113 -86 -254 -121 -400 l-11 -43 -37 17
c-116 51 -302 123 -372 144 -59 17 -80 27 -80 40 0 9 9 69 20 132 42 239 125
547 147 547 5 0 62 -30 128 -66z m2652 -10 c46 -134 134 -535 133 -603 0 -12
-33 -26 -123 -55 -67 -21 -177 -62 -244 -91 l-123 -53 -10 41 c-35 145 -78
288 -121 401 -27 71 -46 133 -42 136 31 27 215 146 293 190 52 29 118 66 145
81 28 16 54 27 59 26 5 -2 20 -34 33 -73z m-3619 -774 c384 -41 712 -127 1010
-266 l104 -48 -4 -105 c-10 -259 24 -557 93 -805 104 -376 313 -796 572 -1149
27 -37 47 -70 45 -73 -8 -7 -198 23 -326 52 -134 30 -333 92 -452 141 -418
173 -704 408 -927 763 -225 356 -359 831 -389 1378 l-7 122 92 0 c50 0 135 -5
189 -10z m4698 -112 c-29 -526 -157 -994 -368 -1347 -105 -173 -239 -334 -388
-463 -286 -247 -752 -441 -1229 -513 -57 -8 -106 -13 -109 -11 -2 3 18 36 45
73 259 353 468 773 572 1149 69 248 103 546 93 805 l-4 105 109 51 c341 159
811 268 1177 272 l109 1 -7 -122z"/>
</g>
</svg>
